<?xml version="1.0" encoding="UTF-8" standalone="no"?>
<!DOCTYPE svg PUBLIC "-//W3C//DTD SVG 1.1//EN" "http://www.w3.org/Graphics/SVG/1.1/DTD/svg11.dtd">
<svg version="1.1" xmlns="http://www.w3.org/2000/svg" xmlns:xlink="http://www.w3.org/1999/xlink" preserveAspectRatio="xMidYMid meet" viewBox="0 0 640 640" width="640" height="640"><defs><path d="M188.22 354.45L188.22 407.66L256.12 465.16L277.76 442.57L312.85 405.95L312.85 347.59L188.22 354.45" id="aK8ePWv7L"></path><path d="M359.05 255.02C358.35 251.25 357.17 247.69 355.42 244.49C353.82 241.57 351.62 238.99 349.03 236.95C346.78 235.17 342.91 234.24 342.07 231.75C341.18 229.13 343.83 222.54 344.16 219.65C344.6 215.98 344.8 212.28 344.31 208.59C341.91 190.43 323.52 178.1 306.21 171.95C289.04 165.84 274.4 134.93 256.77 140.61C239.13 134.93 200.37 139.18 183.19 145.28C165.89 151.44 155.43 190.43 153.04 208.59C152.3 214.2 154.98 220.61 153.92 225.87C152.81 231.37 146.99 232.8 143 235.59C135.8 240.62 138.09 247.68 137.69 254.91C136.9 269.23 139.12 284.84 146 297.81C149.98 305.34 155.54 307.49 161.11 312.92C167.26 318.95 166.25 330.77 168.54 338.29C170.1 343.41 172.47 348.06 175.67 352.13C182.5 360.83 194.37 364.88 202.19 372.79C209.51 380.2 216.29 387.58 226.35 392.36C232.42 395.23 240.89 395.28 248.67 394.93C256.46 395.28 264.93 395.23 270.99 392.36C281.06 387.58 287.84 380.2 295.16 372.79C302.98 364.88 314.85 360.83 321.68 352.13C324.88 348.06 327.25 343.41 328.81 338.29C331.11 330.77 330.08 318.95 336.25 312.92C341.81 307.49 347.36 305.34 351.35 297.81C357.41 286.38 361.67 269.25 359.05 255.02" id="mP6zNSFz9"></path><path d="M145.45 236.73C147.2 244.29 149.85 251.58 154.26 258.25C155.48 251.34 157.34 244.22 157.97 237.23C158.5 231.28 157.57 225.22 158.23 219.21C159.98 203.08 174.69 187.64 182.51 173.56C187.5 164.6 196.63 155.65 207.42 157.13C213.8 158 218.86 162.32 223.91 166.02C237.24 175.78 253.27 182.38 270.05 185.02C289.41 188.06 331.02 182.23 336.64 205.47C340.73 222.35 339.23 241.34 340.28 258.7C340.34 259.62 340.56 260.75 341.43 260.99C342.46 261.27 343.23 260.04 343.6 259.02C346.94 249.89 351.57 240.45 353.9 231.12C355.68 224.01 354.94 216.33 355.8 209.09C358.73 184.56 360.19 161.04 343.79 140.46C323.55 115.04 292.31 99.25 257.91 99.24C229.03 99.23 187.64 108.62 171.31 132.35C140.42 139.05 139.15 187.01 141.55 209.11C142.55 218.32 143.37 227.72 145.45 236.73" id="a1KDW2TV2A"></path><path d="M258.04 640L312.85 504.71L255.64 445.81C251.02 445.81 248.46 445.81 247.94 445.81C247.94 445.81 187.79 504.13 188.22 508.36C192.18 517.13 211.98 561.01 247.62 640L258.04 640" id="e7U55bPIPP"></path><path d="M281.76 570.19C269.55 519.07 262.77 490.67 261.42 484.99C260.77 482.28 261.19 479.45 262.6 477.01C263.37 475.67 269.55 464.95 270.32 463.61C270.67 462.8 270.47 461.88 269.79 461.26C266.83 458.54 263.85 455.81 260.88 453.08C258.86 451.23 256.42 449.5 255.25 447.07C254.41 445.33 252.1 441.43 249.42 443.09C247.08 444.53 246.29 446.8 244.77 448.72C243.25 450.64 240.88 452.28 239.06 453.96C236.4 456.4 233.75 458.83 231.1 461.26C230.43 461.88 230.22 462.8 230.57 463.61C231.34 464.95 237.52 475.67 238.29 477.01C239.7 479.45 240.12 482.28 239.47 484.99C237.44 493.51 221.16 561.67 219.13 570.19C219.02 570.61 219.06 571.06 219.23 571.47C222.05 578.15 244.59 631.58 247.41 638.26C247.93 639.49 249.32 639.82 250.45 639.43C251.57 639.82 252.96 639.49 253.48 638.26C256.3 631.58 278.84 578.15 281.66 571.47C281.83 571.06 281.87 570.61 281.76 570.19" id="b1QJbBWcwB"></path><path d="M247.06 640L246.86 622.17L200.25 479.36C188.49 443.32 181.96 423.3 180.66 419.29C180.66 419.29 179.93 419.51 178.56 419.89C173.66 421.22 160.57 424.87 143.98 429.48C99.42 441.94 41.27 461.39 39.4 462.54C37.52 463.73 14.31 507.43 0 534.61C0 541.64 0 576.77 0 640L247.06 640" id="e4w6Vfk7Kj"></path><path d="M499.05 640C499.13 639.65 499.23 639.34 499.31 638.98C499.31 628.24 499.31 542.32 499.31 531.58C484.93 504.3 463.32 463.68 461.5 462.54C459.61 461.39 401.45 441.94 356.89 429.48C340.38 424.87 327.26 421.26 322.35 419.89C320.94 419.51 320.22 419.29 320.22 419.29C318.39 424.72 309.28 451.82 292.86 500.6L249.6 629.28L249.6 630.55L246.86 622.17L247.06 640L499.05 640" id="a1JCESgSYz"></path><path d="M313.79 389.66C276.78 420.47 256.21 437.59 252.1 441.02C251.16 441.8 249.73 441.8 248.79 441.02C244.68 437.59 224.11 420.47 187.1 389.66L173.31 426.93L199.97 508.36C229.04 470.61 245.19 449.65 248.42 445.45C249.41 444.17 251.48 444.17 252.47 445.45C255.7 449.65 271.85 470.61 300.92 508.36L327.58 426.93L313.79 389.66" id="bk1txFL6r"></path><path d="M138.19 484.46L225.86 640L273.7 640L362.71 484.46L330.34 471.85C352.67 461.72 365.07 456.09 367.55 454.96C365.72 449.73 361.73 439.1 356.89 429.48C340.38 424.87 327.26 421.26 322.35 419.89C320.38 425.27 310.55 452.18 292.86 500.6L283.38 526.59L248.61 620.96L217.49 526.59L200.25 479.36C187.24 443.68 180.01 423.86 178.56 419.89C173.66 421.22 160.57 424.87 143.98 429.48C139.18 439.1 135.15 449.73 133.32 454.96C135.8 456.09 148.21 461.72 170.53 471.85L138.19 484.46" id="b5WPFPd3cr"></path><path d="M374.48 242.65C379.29 209.17 379.27 160.02 354.2 124.53C335.39 97.91 294.04 76.08 251.64 76.08C210.12 76.08 167.89 97.91 149.08 124.53C124.01 160.02 123.99 209.17 128.8 242.65C114.61 250.07 111.97 268.44 116.06 288.12C120.23 308.22 129.57 315.18 146.42 315.4C150.08 315.44 152.81 312.24 152.04 308.63C148.2 290.53 137.4 239.78 137.32 239.8C133.22 207.91 134.02 165.75 156.83 133.77C173.96 109.74 213.5 91.01 251.64 89.62C294.28 91.01 329.32 109.74 346.46 133.77C369.26 165.75 370.07 207.91 365.85 239.77C361.88 258.47 357.98 276.86 354.15 294.91C352.36 303.31 349.33 311.45 344.66 318.65C339.88 326.03 334.37 332 324.74 338.72C317.08 344.06 311.47 347.37 304.77 350.26C300.66 349.28 293.87 350.36 286.78 353.52C276.56 358.09 271.76 364.8 273.52 368.92C275.26 373.04 282.86 373.05 293.01 368.55C299.65 365.61 304.85 361.61 307.25 358.02C315.34 353.99 323.12 349.14 333.08 342.16C343.34 334.96 353.21 324.2 359.41 314.55C373.5 313.2 383.42 306.41 387.22 288.12C391.31 268.44 388.66 250.07 374.48 242.65" id="b4nZ9Ad69F"></path><path d="M585.3 0C508.24 0 465.43 0 456.86 0C426.78 0 402.16 25.19 402.16 60.15C402.16 65.12 402.16 104.91 402.16 109.89C402.16 128.82 409.4 145.86 420.81 157.52C424.65 161.44 425.53 167.99 423.07 173.2C419.84 179.94 393.98 233.89 390.74 240.63C390.74 240.63 479.64 173.45 485.77 173.45C495.72 173.45 575.34 173.45 585.3 173.45C615.38 173.45 640 144.85 640 109.89C640 104.91 640 65.12 640 60.15C640 25.19 615.38 0 585.3 0" id="a2fdzpG8IS"></path><path d="M437.91 54.83C536.74 54.83 591.64 54.83 602.63 54.83C606.21 54.83 609.15 51.41 609.15 47.25C609.15 43.07 606.21 39.66 602.63 39.66C586.15 39.66 454.38 39.66 437.91 39.66C434.32 39.66 431.38 43.07 431.38 47.25C431.38 51.41 434.32 54.83 437.91 54.83" id="a4DLAKFhbV"></path><path d="M602.63 77.56C503.79 77.56 448.89 77.56 437.91 77.56C434.32 77.56 431.38 80.98 431.38 85.15C431.38 89.32 434.32 92.73 437.91 92.73C454.38 92.73 586.15 92.73 602.63 92.73C606.21 92.73 609.15 89.32 609.15 85.15C609.15 80.98 606.21 77.56 602.63 77.56" id="a57IETBcnT"></path><path d="M602.63 115.47C503.79 115.47 448.89 115.47 437.91 115.47C434.32 115.47 431.38 118.88 431.38 123.04C431.38 127.21 434.32 130.63 437.91 130.63C454.38 130.63 586.15 130.63 602.63 130.63C606.21 130.63 609.15 127.21 609.15 123.04C609.15 118.88 606.21 115.47 602.63 115.47" id="b6OauYCSX"></path></defs><g><g><g><use xlink:href="#aK8ePWv7L" opacity="1" fill="#d9b093" fill-opacity="1"></use><g><use xlink:href="#aK8ePWv7L" opacity="1" fill-opacity="0" stroke="#000000" stroke-width="1" stroke-opacity="0"></use></g></g><g><use xlink:href="#mP6zNSFz9" opacity="1" fill="#f8c9aa" fill-opacity="1"></use><g><use xlink:href="#mP6zNSFz9" opacity="1" fill-opacity="0" stroke="#000000" stroke-width="1" stroke-opacity="0"></use></g></g><g><use xlink:href="#a1KDW2TV2A" opacity="1" fill="#373530" fill-opacity="1"></use><g><use xlink:href="#a1KDW2TV2A" opacity="1" fill-opacity="0" stroke="#000000" stroke-width="1" stroke-opacity="0"></use></g></g><g><use xlink:href="#e7U55bPIPP" opacity="1" fill="#bcd4df" fill-opacity="1"></use><g><use xlink:href="#e7U55bPIPP" opacity="1" fill-opacity="0" stroke="#000000" stroke-width="1" stroke-opacity="0"></use></g></g><g><use xlink:href="#b1QJbBWcwB" opacity="1" fill="#3a5272" fill-opacity="1"></use><g><use xlink:href="#b1QJbBWcwB" opacity="1" fill-opacity="0" stroke="#000000" stroke-width="1" stroke-opacity="0"></use></g></g><g><use xlink:href="#e4w6Vfk7Kj" opacity="1" fill="#4d616a" fill-opacity="1"></use><g><use xlink:href="#e4w6Vfk7Kj" opacity="1" fill-opacity="0" stroke="#000000" stroke-width="1" stroke-opacity="0"></use></g></g><g><use xlink:href="#a1JCESgSYz" opacity="1" fill="#516670" fill-opacity="1"></use><g><use xlink:href="#a1JCESgSYz" opacity="1" fill-opacity="0" stroke="#000000" stroke-width="1" stroke-opacity="0"></use></g></g><g><use xlink:href="#bk1txFL6r" opacity="1" fill="#e9f7fd" fill-opacity="1"></use><g><use xlink:href="#bk1txFL6r" opacity="1" fill-opacity="0" stroke="#000000" stroke-width="1" stroke-opacity="0"></use></g></g><g><use xlink:href="#b5WPFPd3cr" opacity="1" fill="#43555d" fill-opacity="1"></use><g><use xlink:href="#b5WPFPd3cr" opacity="1" fill-opacity="0" stroke="#000000" stroke-width="1" stroke-opacity="0"></use></g></g><g><use xlink:href="#b4nZ9Ad69F" opacity="1" fill="#3f4c52" fill-opacity="1"></use><g><use xlink:href="#b4nZ9Ad69F" opacity="1" fill-opacity="0" stroke="#000000" stroke-width="1" stroke-opacity="0"></use></g></g><g><use xlink:href="#a2fdzpG8IS" opacity="1" fill="#54bded" fill-opacity="1"></use><g><use xlink:href="#a2fdzpG8IS" opacity="1" fill-opacity="0" stroke="#000000" stroke-width="1" stroke-opacity="0"></use></g></g><g><use xlink:href="#a4DLAKFhbV" opacity="1" fill="#ffffff" fill-opacity="1"></use><g><use xlink:href="#a4DLAKFhbV" opacity="1" fill-opacity="0" stroke="#000000" stroke-width="1" stroke-opacity="0"></use></g></g><g><use xlink:href="#a57IETBcnT" opacity="1" fill="#ffffff" fill-opacity="1"></use><g><use xlink:href="#a57IETBcnT" opacity="1" fill-opacity="0" stroke="#000000" stroke-width="1" stroke-opacity="0"></use></g></g><g><use xlink:href="#b6OauYCSX" opacity="1" fill="#ffffff" fill-opacity="1"></use><g><use xlink:href="#b6OauYCSX" opacity="1" fill-opacity="0" stroke="#000000" stroke-width="1" stroke-opacity="0"></use></g></g></g></g></svg>