<?xml version="1.0" encoding="UTF-8" standalone="no"?>
<!DOCTYPE svg PUBLIC "-//W3C//DTD SVG 1.1//EN" "http://www.w3.org/Graphics/SVG/1.1/DTD/svg11.dtd">
<svg version="1.1" xmlns="http://www.w3.org/2000/svg" xmlns:xlink="http://www.w3.org/1999/xlink" preserveAspectRatio="xMidYMid meet" viewBox="0 0 640 640" width="640" height="640"><defs><path d="M605.32 0L23.16 0L23.16 359.59L605.32 359.59L605.32 0" id="awubpOXj7"></path><path d="M30.53 10.66L30.53 348.93L597.95 348.93L597.95 10.66L30.53 10.66" id="b2S5hYfI1"></path><path d="M38.25 19.44L38.25 344.32L590.22 344.32L590.22 19.44L38.25 19.44" id="f8ev98ZRy"></path><path d="M425.12 33.23L45.28 33.23L45.28 323.73L568.33 323.73L568.33 33.23L425.12 33.23" id="b24ZvGj8Ai"></path><path d="M287.51 189.72L312.94 212.44L321.03 203.52L287.51 170.97L287.51 189.72" id="i3HAVVJrJs"></path><path d="M334.17 165.99L287.51 168.71L287.51 170.97L321.03 203.52L334.17 189.05L334.17 165.99" id="c2TkbZ34Ci"></path><path d="M351.7 129.36C351.61 127.77 350.73 125.11 348.61 126.65C347.64 127.32 348.12 129.03 347.22 129.6C345.07 130.98 344.86 127.86 344.7 126.5C344.17 121.25 346.58 116.2 345.94 111.05C345.04 103.88 338.16 99.01 331.69 96.56C325.27 94.15 316.76 94.18 310.16 96.41C303.54 94.18 295.03 94.15 288.6 96.56C282.12 99.01 275.26 103.88 274.34 111.05C273.7 116.2 276.12 121.25 275.59 126.5C275.43 127.86 275.23 130.98 273.07 129.6C272.17 129.03 272.65 127.32 271.68 126.65C269.56 125.11 268.69 127.77 268.58 129.36C268.28 135.02 269.14 141.19 271.72 146.31C273.19 149.29 275.28 150.15 277.36 152.26C279.67 154.66 279.28 159.35 280.15 162.3C280.73 164.34 281.61 166.16 282.81 167.79C285.36 171.21 289.82 172.82 292.76 175.95C295.48 178.87 298.02 181.79 301.8 183.68C304.08 184.79 307.22 184.83 310.16 184.69C313.07 184.83 316.22 184.79 318.52 183.68C322.27 181.79 324.81 178.87 327.54 175.95C330.47 172.82 334.92 171.21 337.47 167.79C338.69 166.16 339.56 164.34 340.13 162.3C341 159.35 340.61 154.66 342.92 152.26C345.01 150.15 347.11 149.29 348.58 146.31C351.15 141.19 352 135.02 351.7 129.36" id="b18f87aX1h"></path><path d="M271.41 122.25C272.29 125.23 272.4 127.44 272.32 130.42C272.29 130.8 272.26 131.42 272.26 132.07C272.64 132.07 275.73 132.07 276.12 132.07C276.19 131.28 276.12 130.54 276.12 130.06C276.01 127.92 276.1 126.18 276.19 124.02C276.34 121.1 275.98 118.12 276.28 115.26C277.06 107.68 283.73 102.35 291.12 101.75C296.54 101.34 301.99 102.44 307.41 102.46C314.13 102.46 317.15 99.31 322.45 96.09C323.88 95.24 323.02 95.11 324.52 95.51C325.47 95.74 326.72 97.01 327.54 97.51C332.6 100.52 341.62 103.49 343.06 109.83C344.23 114.79 343.97 119.89 343.85 124.97C343.83 125.67 343.19 129.53 343.37 132.07C343.67 132.07 346.09 132.07 346.39 132.07C347.34 129 348.64 124.85 348.97 123.25C350.25 116.82 349.95 113.99 350.25 111.25C351.34 101.56 351.88 92.26 345.76 84.12C339.2 75.42 329.44 70.32 324.24 70.97C323.94 70.99 320.42 71.32 320.88 71.7C319.04 70.08 315.77 69.96 313.49 69.43C301.26 66.6 285.81 74 276.94 81.88C267.59 90.22 268.99 100.96 270.04 111.25C270.4 114.85 270.37 118.84 271.41 122.25" id="boWTFqBAS"></path><path d="M287.51 229.51C287.37 227.86 309.87 204.8 309.87 204.8C310.06 204.8 311.03 204.8 312.77 204.8L334.17 228.09L311.79 286.37L287.51 229.51" id="a8y9C7vjV"></path><path d="M322.54 253.96C317.97 233.75 315.42 222.52 314.91 220.27C314.66 219.22 314.82 218.1 315.38 217.13C315.66 216.6 317.96 212.38 318.25 211.85C318.36 211.52 318.31 211.17 318.06 210.9C316.94 209.84 315.83 208.75 314.69 207.69C313.94 206.95 313.04 206.27 312.61 205.3C312.28 204.63 311.43 203.09 310.43 203.74C309.56 204.29 309.25 205.2 308.68 205.95C308.1 206.71 307.22 207.36 306.57 208.01C305.55 208.99 304.56 209.95 303.57 210.9C303.31 211.17 303.23 211.52 303.37 211.85C303.66 212.38 305.97 216.6 306.25 217.13C306.8 218.1 306.95 219.22 306.71 220.27C305.94 223.64 299.84 250.59 299.08 253.96C299.05 254.13 299.05 254.32 299.1 254.47C300.16 257.1 308.62 278.22 309.68 280.86C309.87 281.35 310.4 281.47 310.8 281.33C311.22 281.47 311.76 281.35 311.94 280.86C313 278.22 321.43 257.1 322.48 254.47C322.57 254.32 322.57 254.13 322.54 253.96" id="cVVQAcX22"></path><path d="M309.47 274.51L292.02 218.07C287.61 203.82 285.16 195.91 284.67 194.32C284.67 194.32 284.4 194.41 283.91 194.57C282.06 195.1 277.16 196.53 270.95 198.34C254.28 203.26 228.27 210.96 227.57 211.43C226.87 211.87 218.18 229.16 212.82 239.89C212.82 244.16 212.82 278.3 212.82 282.57C213.95 286.81 215.4 290.2 217.18 291.97C239.55 313.88 298.71 312.91 309.89 314.27C309.86 311.62 309.72 298.36 309.47 274.51" id="cSGxqlC3C"></path><path d="M408.23 238.68C402.83 227.92 394.75 211.87 394.05 211.43C393.36 210.96 367.35 203.26 350.67 198.34C344.46 196.53 339.56 195.1 337.71 194.57C337.19 194.41 336.92 194.32 336.92 194.32C336.24 196.47 332.83 207.18 326.7 226.47L310.49 277.32L310.49 277.82L309.47 274.51L309.89 314.27C310.15 314.3 310.29 314.32 310.32 314.32C315.49 313.97 390.58 314.27 404.49 291.97C405.89 289.73 407.16 285.84 408.23 281.14C408.23 278.31 408.23 264.16 408.23 238.68" id="i3fZJmMpz"></path><path d="M334.53 182.61C320.67 194.79 312.97 201.55 311.43 202.91C311.07 203.2 310.55 203.2 310.19 202.91C308.65 201.55 300.95 194.79 287.09 182.61L281.94 197.33L291.91 229.51C302.78 214.59 308.83 206.3 310.04 204.65C310.43 204.15 311.19 204.15 311.55 204.65C312.76 206.3 318.82 214.59 329.72 229.51L339.67 197.33L334.53 182.61" id="aOd8T7rd2"></path><path d="M340.7 215.08L352.86 220.07L310.49 298.2L268.78 220.07L280.89 215.08C272.52 211.09 267.88 208.87 266.95 208.43C267.65 206.36 269.17 202.14 270.95 198.34C277.16 196.53 282.06 195.1 283.91 194.57C284.45 196.13 287.15 203.97 292.02 218.07L298.48 236.73L310.13 274.01L323.14 236.73L326.7 226.47C333.31 207.33 336.98 196.7 337.71 194.57C339.56 195.1 344.46 196.53 350.67 198.34C352.45 202.14 353.97 206.36 354.64 208.43C353.71 208.87 349.07 211.09 340.7 215.08" id="a1iltKx5Yj"></path><path d="M440.17 299.05C440.17 307.5 440.17 312.2 440.17 313.14C440.17 317.36 436.65 320.81 432.33 320.81C406.72 320.81 201.83 320.81 176.22 320.81C171.92 320.81 168.37 317.36 168.37 313.14C168.37 311.73 168.37 300.46 168.37 299.05C168.37 294.82 171.92 291.41 176.22 291.41C201.83 291.41 406.72 291.41 432.33 291.41C436.65 291.41 440.17 294.82 440.17 299.05" id="aGjutr4dP"></path><path d="M440.17 310.17C440.17 311.95 440.17 312.94 440.17 313.14C440.17 317.36 436.65 320.81 432.33 320.81C406.72 320.81 201.83 320.81 176.22 320.81C171.92 320.81 168.37 317.36 168.37 313.14C168.37 312.94 168.37 311.95 168.37 310.17L440.17 310.17" id="c1dlICqzc1"></path><path d="M325.63 276.93C325.6 277.13 325.36 277.32 325.08 277.32C321.96 277.32 296.97 277.32 293.84 277.32C293.57 277.32 293.32 277.13 293.29 276.93C293.08 275.11 291.41 260.61 291.2 258.8C291.2 258.8 291.42 258.33 291.71 258.33C293.13 258.33 300.18 258.33 312.89 258.33C321.47 258.33 326.24 258.33 327.2 258.33C327.54 258.33 327.75 258.53 327.75 258.53C327.69 259.08 327.38 261.82 326.82 266.75C326.18 272.18 325.79 275.57 325.63 276.93ZM382.37 229.51C296.54 229.51 248.85 229.51 239.31 229.51C238.52 229.51 237.89 229.86 237.53 230.36C237.31 230.66 237.23 231.05 237.28 231.46C238.12 238.77 244.85 297.28 245.7 304.59C245.8 305.42 246.77 306.1 247.85 306.1C256.25 306.1 298.24 306.1 373.83 306.1C373.85 306.1 373.87 306.1 373.87 306.1C374.92 306.1 375.89 305.42 375.99 304.59C376.83 297.28 383.55 238.77 384.39 231.46C384.51 230.39 383.6 229.51 382.37 229.51" id="bkVC0Teww"></path><path d="M327.2 258.33C305.91 258.33 294.08 258.33 291.71 258.33C291.42 258.33 291.17 258.53 291.17 258.53C291.38 260.37 293.08 275.09 293.29 276.93C293.32 277.13 293.57 277.32 293.84 277.32C296.97 277.32 321.96 277.32 325.08 277.32C325.36 277.32 325.6 277.13 325.63 276.93C325.71 276.25 326.11 272.86 326.82 266.75C327.36 261.98 327.66 259.33 327.72 258.8C327.72 258.8 327.54 258.33 327.2 258.33" id="f2HSdxo73"></path><path d="M359.51 120.36C360.62 107.13 359.51 89.81 349.15 76.84C341.62 67.36 325.87 59.76 310.07 59.76C294.56 59.76 278.49 67.36 270.95 76.84C260.6 89.81 259.47 107.13 260.6 120.36C254.7 123.34 253.15 130.83 254.28 139C255.63 148.62 260.18 151.18 269.11 150.47C268.78 148.38 267.12 137.97 264.14 119.22C264.12 119.22 264.11 119.22 264.11 119.22C263.15 106.66 264.39 90.58 273.76 78.81C280.65 70.17 295.72 63.59 310.07 63.09C326.08 63.59 339.47 70.17 346.34 78.81C355.76 90.58 356.96 106.66 356 119.22C355.99 119.22 355.98 119.22 355.97 119.22L351 150.47L351.19 150.47C341.92 161.02 336.78 166.88 335.75 168.05C334.83 167.26 333.41 167.26 332.54 168.08C331.74 168.8 325.4 174.58 324.61 175.3C323.69 176.12 323.66 177.52 324.58 178.4C324.74 178.56 326.02 179.81 326.18 179.97C327.09 180.85 328.57 180.85 329.47 180.02C330.27 179.3 336.62 173.52 337.41 172.8C338.04 172.21 338.22 171.38 338 170.62C339.78 168.61 353.98 152.48 355.76 150.47C361.57 149.91 364.75 146.73 365.84 139C366.95 130.83 365.42 123.34 359.51 120.36" id="bGVOc92GE"></path><path d="M425.12 325.65L45.28 325.65L45.28 342.2L568.33 342.2L568.33 325.65L425.12 325.65" id="b1Cqa5Ij59"></path><path d="M568.33 321.87L425.12 321.87L425.12 328.97L568.33 328.97L568.33 321.87" id="a3Oi04LmpT"></path><path d="M45.28 321.87L45.28 328.97L425.12 328.97L425.12 321.87L45.28 321.87" id="b7L6GbeVp8"></path><path d="M433.62 323.3C433.62 328.52 429.27 332.75 423.91 332.75C418.55 332.75 414.2 328.52 414.2 323.3C414.2 318.07 418.55 313.84 423.91 313.84C429.27 313.84 433.62 318.07 433.62 323.3" id="d1RDhLXXZ4"></path><path d="M428.76 323.3C428.76 325.91 426.59 328.02 423.91 328.02C421.22 328.02 419.05 325.91 419.05 323.3C419.05 320.68 421.22 318.57 423.91 318.57C426.59 318.57 428.76 320.68 428.76 323.3" id="b517ydPA5"></path><path d="M51.01 329.92L60.59 335.3L51.01 340.7L51.01 329.92Z" id="c6ntRaF18"></path><path d="M75.9 332.83L73.19 332.83L73.19 337.29L75.9 337.29L80.29 340.66L80.29 329.57L75.9 332.83" id="ayHtBHSPr"></path><path d="M83.78 333.58C83.58 333.2 83.34 332.89 83.04 332.65C82.29 332.03 81.49 332.19 81.46 332.2C81.34 332.22 81.27 332.34 81.29 332.45C81.31 332.56 81.43 332.63 81.55 332.61C81.57 332.6 82.18 332.49 82.77 332.98C83 333.17 83.27 333.48 83.47 333.97C83.75 334.63 83.75 335.38 83.47 336.04C83.27 336.54 83 336.84 82.77 337.04C82.18 337.52 81.57 337.41 81.55 337.4C81.43 337.38 81.31 337.46 81.29 337.58C81.27 337.68 81.34 337.8 81.46 337.82C81.49 337.83 82.29 337.98 83.04 337.36C83.34 337.14 83.58 336.82 83.78 336.43C84.21 335.53 84.21 334.49 83.78 333.58" id="fsXQeSUQi"></path><path d="M82.07 335.86C81.95 335.86 81.86 335.94 81.86 336.06C81.86 336.18 81.96 336.28 82.08 336.28C82.14 336.28 82.38 336.26 82.65 335.97C83.17 335.44 83.17 334.58 82.65 334.04C82.38 333.76 82.14 333.74 82.08 333.74C81.96 333.74 81.86 333.83 81.86 333.95C81.86 334.07 81.95 334.17 82.07 334.17C82.07 334.17 82.18 334.18 82.34 334.33C82.71 334.7 82.71 335.32 82.34 335.69C82.18 335.84 82.08 335.86 82.07 335.86" id="a1keC9aZjD"></path><path d="M150.47 377.87C150.38 376.18 149.44 373.34 147.2 374.97C146.17 375.71 146.67 377.52 145.72 378.12C143.43 379.6 143.2 376.28 143.06 374.82C142.47 369.25 145.05 363.89 144.37 358.42C143.41 350.79 133.97 341.23 127.09 338.65C120.25 336.08 111.21 336.12 104.2 338.5C97.17 336.12 88.14 336.08 81.31 338.65C74.42 341.23 69.23 350.79 68.28 358.42C67.58 363.89 70.16 369.25 69.58 374.82C69.43 376.28 69.21 379.6 66.92 378.12C65.97 377.52 66.47 375.71 65.43 374.96C61.49 372.13 62.45 380.19 62.84 381.57C64.42 387.17 66.51 393.9 71.68 397.39C73.16 398.39 76.47 398.97 77.37 399.92C79.66 402.33 83.29 416.22 83.14 419.62C83.09 421.12 82.8 428.58 82.27 442.02L109.29 466.16L117.88 456.67C126.72 447.44 131.62 442.32 132.61 441.29C132.61 428.46 127.22 412.64 137.71 402.24C146 394.03 151.11 390.21 150.47 377.87" id="b3SCKj0RxD"></path><path d="M63.04 369.81C63.68 372.68 64.31 375.66 64.75 378.88C66.02 388.06 74.25 393.54 78.3 401.74C80.17 405.58 84.48 409.89 85.34 413.97C91.43 411.91 87.82 410.72 92.78 415C95.87 417.67 106.46 417.39 110.24 416.21C112.65 415.46 113.6 412.82 116.33 412.43C119.06 412.05 121.79 414.27 124.62 414.16C124 414.18 130.27 412.99 129.15 413.47C137.13 410.07 143.54 396.52 146.29 389.2C148.15 384.28 151.51 380.29 153.36 375.45C155.2 370.64 155.04 364.82 155.75 359.76C157.26 348.01 158.2 334.41 151.48 323.87C144.05 312.24 124.76 299.79 110.37 299.98C96.05 300.15 73.87 312.97 66.39 324.82C57.88 338.32 59.72 355.05 63.04 369.81" id="a35aUwHrMf"></path><path d="M132.22 434.45C121.84 436.32 116.07 437.35 114.91 437.56C109.23 438.58 103.41 438.56 97.74 437.47C96.67 437.27 91.37 436.26 81.82 434.45L76.33 450.11L86.95 484.3L127.11 484.3L137.71 450.11L132.22 434.45" id="g4fBOGm6P"></path><path d="M206.57 525.01C194.46 536.95 172.14 545.05 151.53 550.23C138.1 553.62 125.38 555.77 116.69 556.96C110.38 557.83 103.99 557.82 97.7 556.9C76.38 553.8 27.77 544.84 7.53 525.01C-0.35 517.3 -2.19 505.49 2.7 495.7C8.38 484.32 17.81 465.56 18.56 465.05C19.31 464.58 46.95 456.4 64.67 451.17C71.26 449.24 76.47 447.7 78.43 447.15C78.97 446.98 79.26 446.89 79.26 446.89C84.81 446.89 129.23 446.89 134.78 446.89C134.78 446.89 135.06 446.98 135.63 447.15C137.58 447.72 142.8 449.24 149.37 451.17C167.09 456.4 194.73 464.58 195.48 465.05C196.25 465.56 205.69 484.35 211.36 495.73C216.22 505.5 214.41 517.28 206.57 525.01" id="b9bMeSHRS"></path><path d="M452.3 366.91C452.21 365.22 451.3 362.39 449.03 364.02C448 364.75 448.51 366.57 447.55 367.17C445.26 368.64 445.03 365.33 444.89 363.86C444.31 358.29 446.88 352.94 446.2 347.47C445.24 339.84 435.81 330.29 428.93 327.7C422.08 325.13 413.05 325.16 406.04 327.55C399.02 325.16 389.97 325.13 383.14 327.7C376.26 330.29 371.06 339.84 370.11 347.47C369.42 352.94 371.99 358.29 371.42 363.86C371.27 365.33 371.04 368.64 368.75 367.17C367.8 366.57 368.3 364.75 367.27 364.02C363.32 361.17 364.28 369.25 364.68 370.62C366.26 376.22 368.34 382.95 373.52 386.44C374.99 387.44 378.31 388.01 379.22 388.97C381.49 391.38 385.12 405.26 384.99 408.67C384.93 410.16 384.63 417.62 384.1 431.06L411.12 455.2L419.72 445.72C428.55 436.49 433.46 431.36 434.44 430.34C434.44 417.5 429.06 401.69 439.54 391.3C447.83 383.08 452.95 379.25 452.3 366.91" id="a6WxO8c517"></path><path d="M364.87 358.86C365.52 361.72 366.14 364.71 366.58 367.93C367.85 377.1 376.1 382.59 380.13 390.79C382.02 394.63 386.31 398.94 387.18 403.03C393.26 400.95 389.65 399.76 394.61 404.05C397.7 406.72 408.29 406.44 412.07 405.25C414.49 404.5 415.43 401.86 418.17 401.48C420.89 401.1 423.63 403.32 426.46 403.2C425.83 403.23 432.1 402.04 430.99 402.51C438.96 399.12 445.38 385.57 448.12 378.24C449.98 373.32 453.34 369.34 455.19 364.51C457.04 359.69 456.88 353.87 457.59 348.81C460.8 325.76 458.16 303.01 427.78 298.09C413.87 295.84 397.69 295.13 384.41 300.26C373.18 304.61 366.17 315.81 362.32 326.45C358.45 337.12 362.77 349.54 364.87 358.86" id="b1gb7hIAoC"></path><path d="M434.07 423.5C423.67 425.37 417.9 426.4 416.75 426.61C411.08 427.63 405.25 427.6 399.58 426.52C398.51 426.32 393.21 425.32 383.65 423.5L378.17 439.15L388.78 473.34L428.94 473.34L439.54 439.15L434.07 423.5" id="b1hyXZIVFu"></path><path d="M508.4 514.05C496.29 526 473.98 534.09 453.37 539.28C439.94 542.66 427.21 544.81 418.52 546.02C412.21 546.89 405.83 546.88 399.53 545.96C378.21 542.85 329.62 533.89 309.37 514.05C301.49 506.34 299.65 494.53 304.54 484.75C310.22 473.36 319.64 454.61 320.4 454.11C321.15 453.63 348.78 445.46 366.5 440.22C373.11 438.29 378.31 436.76 380.26 436.19C380.81 436.03 381.09 435.95 381.09 435.95C386.65 435.95 431.06 435.95 436.61 435.95C436.61 435.95 436.91 436.03 437.47 436.19C439.41 436.77 444.63 438.29 451.2 440.22C468.93 445.46 496.56 453.63 497.32 454.11C498.09 454.61 507.52 473.39 513.2 484.78C518.07 494.55 516.24 506.33 508.4 514.05" id="aIQIbeyrB"></path><path d="M578.26 405.47C578.17 403.83 577.27 401.07 575.07 402.65C574.09 403.37 574.57 405.13 573.65 405.72C571.42 407.15 571.21 403.94 571.06 402.51C570.49 397.09 572.98 391.9 572.32 386.59C571.4 379.18 562.24 369.89 555.54 367.39C548.91 364.9 540.13 364.93 533.32 367.24C526.51 364.93 517.73 364.9 511.09 367.39C504.41 369.89 499.37 379.18 498.44 386.59C497.77 391.9 500.26 397.09 499.71 402.51C499.56 403.94 499.35 407.15 497.11 405.72C496.19 405.13 496.68 403.37 495.68 402.65C491.84 399.89 492.78 407.73 493.15 409.07C494.7 414.51 496.72 421.04 501.74 424.43C503.17 425.4 506.41 425.97 507.28 426.89C509.5 429.22 513.02 442.71 512.88 446.01C512.82 447.46 512.54 454.71 512.02 467.76L538.27 491.21L546.62 481.99C555.19 473.03 559.95 468.05 560.9 467.06C560.9 454.6 555.68 439.24 565.86 429.14C573.92 421.17 578.89 417.46 578.26 405.47" id="aOX3pKNp"></path><path d="M492.57 397.91C495.65 406.51 500.19 414.76 506.47 421.44C512.66 428.02 517.53 433.62 518.12 443.18C529.39 443.53 540.68 443.88 551.97 444.23C559.46 444.47 566.77 425.52 569.31 420.5C575.65 407.99 582.08 401.16 583.52 386.84C585.85 364.01 581.08 342.94 554.45 338.63C540.92 336.44 525.22 335.76 512.34 340.73C501.42 344.97 494.61 355.84 490.87 366.18C487.44 375.64 488.65 387.05 492.57 397.91" id="elkGryubl"></path><path d="M560.53 460.42C550.45 462.23 544.84 463.23 543.72 463.43C538.21 464.43 532.56 464.4 527.05 463.35C526.02 463.16 520.87 462.18 511.59 460.42L506.26 475.62L516.56 508.82L555.56 508.82L565.86 475.62L560.53 460.42" id="d1Ru6w3m26"></path><path d="M632.74 548.35C620.98 559.95 599.31 567.81 579.29 572.86C566.25 576.14 553.9 578.23 545.45 579.39C539.33 580.24 533.13 580.24 527.01 579.34C506.31 576.32 459.11 567.62 439.45 548.35C431.79 540.86 430.01 529.4 434.76 519.89C440.28 508.84 449.43 490.62 450.16 490.14C450.88 489.67 477.73 481.74 494.94 476.66C501.35 474.78 506.41 473.29 508.29 472.75C508.82 472.59 509.1 472.5 509.1 472.5C514.5 472.5 557.63 472.5 563.02 472.5C563.02 472.5 563.3 472.59 563.84 472.75C565.74 473.3 570.82 474.78 577.19 476.66C594.4 481.74 621.24 489.67 621.97 490.14C622.72 490.62 631.89 508.87 637.39 519.93C642.11 529.41 640.35 540.85 632.74 548.35" id="dkIXYL7JD"></path><path d="M324.39 393.29C324.3 391.64 323.38 388.85 321.18 390.45C320.17 391.17 320.66 392.95 319.73 393.54C317.48 394.99 317.26 391.74 317.11 390.3C316.54 384.84 319.07 379.58 318.39 374.2C317.46 366.71 308.2 357.33 301.44 354.8C294.73 352.28 285.85 352.31 278.97 354.65C272.08 352.31 263.2 352.28 256.49 354.8C249.74 357.33 244.64 366.71 243.7 374.2C243.04 379.58 245.56 384.84 244.98 390.3C244.83 391.74 244.62 394.99 242.36 393.54C241.43 392.95 241.92 391.17 240.92 390.45C237.04 387.65 237.99 395.59 238.37 396.94C239.92 402.43 241.96 409.03 247.04 412.46C248.51 413.45 251.76 414.01 252.64 414.95C254.88 417.32 258.44 430.94 258.3 434.28C258.24 435.75 257.95 443.07 257.44 456.26L283.96 479.96L292.41 470.65C301.07 461.59 305.88 456.56 306.85 455.55C306.85 442.95 301.57 427.43 311.86 417.22C320 409.16 325.03 405.41 324.39 393.29" id="c2eDKZfZSl"></path><path d="M238.55 385.38C239.19 388.2 239.81 391.13 240.24 394.29C241.48 403.3 249.58 408.69 253.53 416.73C255.39 420.5 259.6 424.73 260.46 428.74C266.45 426.71 262.89 425.55 267.75 429.75C270.78 432.37 281.18 432.1 284.89 430.93C287.27 430.2 288.2 427.6 290.87 427.24C293.56 426.86 296.23 429.04 299.02 428.93C298.4 428.95 304.56 427.77 303.47 428.23C311.29 424.91 317.58 411.61 320.29 404.41C322.1 399.59 325.41 395.68 327.23 390.93C329.04 386.2 328.88 380.49 329.58 375.52C332.73 352.9 330.13 330.56 300.32 325.73C286.66 323.52 270.77 322.83 257.75 327.86C246.72 332.13 239.84 343.12 236.05 353.57C232.26 364.04 236.5 376.24 238.55 385.38" id="a13U3YX4YS"></path><path d="M306.48 448.85C296.28 450.68 290.62 451.69 289.49 451.9C283.91 452.89 278.2 452.87 272.63 451.81C271.59 451.61 266.38 450.63 257 448.85L251.62 464.21L262.02 497.78L301.46 497.78L311.86 464.21L306.48 448.85" id="afhlwEXVB"></path><path d="M379.46 537.74C367.58 549.47 345.67 557.4 325.44 562.5C312.25 565.82 299.76 567.94 291.22 569.11C285.03 569.96 278.76 569.96 272.59 569.06C251.66 566 203.94 557.21 184.07 537.74C176.33 530.16 174.53 518.57 179.33 508.97C184.91 497.8 194.16 479.38 194.9 478.88C195.63 478.41 222.77 470.4 240.16 465.25C246.64 463.36 251.76 461.86 253.66 461.3C254.21 461.14 254.49 461.06 254.49 461.06C259.94 461.06 303.53 461.06 308.98 461.06C308.98 461.06 309.27 461.14 309.82 461.3C311.73 461.87 316.86 463.36 323.31 465.25C340.71 470.4 367.84 478.41 368.58 478.88C369.33 479.38 378.59 497.82 384.17 508.99C388.94 518.59 387.15 530.15 379.46 537.74" id="a1mRSQmZ9w"></path><path d="M218.78 440.68C218.68 438.79 217.64 435.59 215.1 437.42C213.96 438.25 214.52 440.29 213.45 440.97C210.89 442.62 210.62 438.9 210.46 437.26C209.8 431 212.69 424.99 211.93 418.84C210.86 410.27 200.26 399.55 192.52 396.63C184.86 393.76 174.7 393.8 166.82 396.47C158.95 393.8 148.79 393.76 141.11 396.63C133.39 399.55 127.56 410.27 126.47 418.84C125.71 424.99 128.6 431 127.95 437.26C127.78 438.9 127.53 442.62 124.95 440.97C123.89 440.29 124.45 438.25 123.29 437.42C118.86 434.24 119.94 443.3 120.37 444.84C122.16 451.13 124.5 458.68 130.3 462.6C131.96 463.73 135.69 464.38 136.7 465.45C139.27 468.15 143.33 483.75 143.18 487.56C143.12 489.24 142.79 497.62 142.2 512.7L172.52 539.82L182.2 529.17C192.11 518.81 197.62 513.05 198.72 511.9C198.72 497.49 192.67 479.74 204.45 468.05C213.77 458.84 219.51 454.55 218.78 440.68" id="d3dWaSXMC3"></path><path d="M120.58 431.65C123.82 443.06 132.02 450.96 138 460.83C141.91 467.31 142.85 476.64 149.05 481.57C153.07 484.75 158.39 485.69 163.49 486.53C169.86 487.57 176.49 488.61 182.7 486.86C197.4 482.71 204.67 463.09 210.52 450.92C217.73 435.91 225 399.96 215.98 385.35C205.39 368.18 182.93 364.63 164.16 364.38C155.88 364.26 144.01 365.66 136.46 369.08C134.36 370.03 119.95 380.53 119.77 380.21C124.55 388.91 120.67 394.78 118.02 402.9C115.64 410.15 118.2 418.31 119.41 426.16C119.71 428.11 120.1 429.93 120.58 431.65" id="g17g848Pm"></path><path d="M198.29 504.22C186.63 506.31 180.15 507.48 178.86 507.71C172.47 508.85 165.94 508.82 159.57 507.61C158.38 507.39 152.42 506.26 141.7 504.22L135.54 521.8L147.45 560.2L192.54 560.2L204.45 521.8L198.29 504.22" id="b2EVzB3smO"></path><path d="M281.84 605.85C252.15 635.24 206.4 635.24 167.4 636.24C129.49 637.2 84.92 633.54 57.33 604.95C49.08 596.4 47.56 583.6 52.83 573.04C59.19 560.27 69.81 539.15 70.66 538.6C71.49 538.05 102.53 528.87 122.43 523C129.85 520.83 135.69 519.11 137.88 518.48C138.5 518.3 138.82 518.2 138.82 518.2C145.05 518.2 194.93 518.2 201.16 518.2C201.16 518.2 201.48 518.3 202.11 518.48C204.3 519.13 210.17 520.83 217.55 523C237.45 528.87 268.49 538.05 269.34 538.6C270.19 539.15 280.79 560.25 287.16 573.03C292.63 583.99 290.61 597.16 281.84 605.85" id="cmlnttQ4"></path><path d="M446.51 442.84C446.4 440.94 445.29 437.76 442.6 439.59C441.38 440.41 441.98 442.45 440.84 443.13C438.1 444.77 437.84 441.06 437.66 439.42C436.97 433.17 440.04 427.17 439.21 421.02C438.08 412.47 426.81 401.76 418.59 398.85C410.42 395.98 399.64 396.01 391.26 398.68C382.88 396.01 372.08 395.98 363.91 398.85C355.71 401.76 349.49 412.47 348.36 421.02C347.55 427.17 350.61 433.17 349.92 439.42C349.73 441.06 349.47 444.77 346.73 443.13C345.59 442.45 346.19 440.41 344.97 439.58C340.25 436.4 341.4 445.45 341.87 446.99C343.76 453.28 346.24 460.82 352.41 464.73C354.19 465.87 358.14 466.51 359.23 467.58C361.96 470.27 366.28 485.85 366.12 489.67C366.05 491.34 365.7 499.71 365.08 514.78L397.33 541.86L407.6 531.23C418.15 520.87 424 515.12 425.17 513.97C425.17 499.57 418.74 481.84 431.27 470.18C441.18 460.97 447.28 456.68 446.51 442.84" id="kbXFkyQUs"></path><path d="M342.1 433.81C346.85 453.72 358.27 470.44 379.54 477.87C393.38 482.71 404.09 486.47 416.4 478.55C440.56 463 447.43 436.48 450.22 410.29C451.68 396.62 452.4 389.52 445.94 377.28C438.54 363.25 436.13 363.93 421.52 363.23C413.42 362.84 406.3 359.03 398.19 358.51C374.25 356.96 354.32 369.95 342.97 389.66C334.31 404.68 338.32 417.98 342.1 433.81" id="a210ezlUi"></path><path d="M424.72 506.3C412.32 508.4 405.43 509.56 404.05 509.79C397.27 510.94 390.3 510.9 383.55 509.69C382.28 509.47 375.95 508.34 364.54 506.3L357.99 523.86L370.65 562.21L418.61 562.21L431.27 523.86L424.72 506.3" id="hTYYBGy78"></path><path d="M513.5 607.87C482.23 636.8 431.5 640.26 390.73 639.99C351.98 639.74 305.42 635.05 275.82 607.87C266.41 599.22 264.22 585.97 270.05 575C276.83 562.22 288.09 541.2 289 540.63C289.89 540.08 322.89 530.92 344.06 525.06C351.93 522.89 358.14 521.17 360.48 520.54C361.13 520.36 361.48 520.26 361.48 520.26C368.11 520.26 421.14 520.26 427.77 520.26C427.77 520.26 428.12 520.36 428.79 520.54C431.12 521.19 437.36 522.89 445.19 525.06C466.36 530.92 499.37 540.08 500.26 540.63C501.18 541.2 512.46 562.26 519.23 575.03C525.03 585.99 522.86 599.2 513.5 607.87" id="c3Sp7U2Eg"></path></defs><g><g><g><use xlink:href="#awubpOXj7" opacity="1" fill="#577075" fill-opacity="1"></use><g><use xlink:href="#awubpOXj7" opacity="1" fill-opacity="0" stroke="#000000" stroke-width="1" stroke-opacity="0"></use></g></g><g><use xlink:href="#b2S5hYfI1" opacity="1" fill="#7f9a9e" fill-opacity="1"></use><g><use xlink:href="#b2S5hYfI1" opacity="1" fill-opacity="0" stroke="#000000" stroke-width="1" stroke-opacity="0"></use></g></g><g><use xlink:href="#f8ev98ZRy" opacity="1" fill="#686c6e" fill-opacity="1"></use><g><use xlink:href="#f8ev98ZRy" opacity="1" fill-opacity="0" stroke="#000000" stroke-width="1" stroke-opacity="0"></use></g></g><g><use xlink:href="#b24ZvGj8Ai" opacity="1" fill="#d5eff4" fill-opacity="1"></use><g><use xlink:href="#b24ZvGj8Ai" opacity="1" fill-opacity="0" stroke="#000000" stroke-width="1" stroke-opacity="0"></use></g></g><g><use xlink:href="#i3HAVVJrJs" opacity="1" fill="#e8a587" fill-opacity="1"></use><g><use xlink:href="#i3HAVVJrJs" opacity="1" fill-opacity="0" stroke="#000000" stroke-width="1" stroke-opacity="0"></use></g></g><g><use xlink:href="#c2TkbZ34Ci" opacity="1" fill="#da9586" fill-opacity="1"></use><g><use xlink:href="#c2TkbZ34Ci" opacity="1" fill-opacity="0" stroke="#000000" stroke-width="1" stroke-opacity="0"></use></g></g><g><use xlink:href="#b18f87aX1h" opacity="1" fill="#f8c9aa" fill-opacity="1"></use><g><use xlink:href="#b18f87aX1h" opacity="1" fill-opacity="0" stroke="#000000" stroke-width="1" stroke-opacity="0"></use></g></g><g><use xlink:href="#boWTFqBAS" opacity="1" fill="#373530" fill-opacity="1"></use><g><use xlink:href="#boWTFqBAS" opacity="1" fill-opacity="0" stroke="#000000" stroke-width="1" stroke-opacity="0"></use></g></g><g><use xlink:href="#a8y9C7vjV" opacity="1" fill="#bcd4df" fill-opacity="1"></use><g><use xlink:href="#a8y9C7vjV" opacity="1" fill-opacity="0" stroke="#000000" stroke-width="1" stroke-opacity="0"></use></g></g><g><use xlink:href="#cVVQAcX22" opacity="1" fill="#3a5272" fill-opacity="1"></use><g><use xlink:href="#cVVQAcX22" opacity="1" fill-opacity="0" stroke="#000000" stroke-width="1" stroke-opacity="0"></use></g></g><g><use xlink:href="#cSGxqlC3C" opacity="1" fill="#5c727e" fill-opacity="1"></use><g><use xlink:href="#cSGxqlC3C" opacity="1" fill-opacity="0" stroke="#000000" stroke-width="1" stroke-opacity="0"></use></g></g><g><use xlink:href="#i3fZJmMpz" opacity="1" fill="#4d616a" fill-opacity="1"></use><g><use xlink:href="#i3fZJmMpz" opacity="1" fill-opacity="0" stroke="#000000" stroke-width="1" stroke-opacity="0"></use></g></g><g><use xlink:href="#aOd8T7rd2" opacity="1" fill="#e9f7fd" fill-opacity="1"></use><g><use xlink:href="#aOd8T7rd2" opacity="1" fill-opacity="0" stroke="#000000" stroke-width="1" stroke-opacity="0"></use></g></g><g><use xlink:href="#a1iltKx5Yj" opacity="1" fill="#3f4c52" fill-opacity="1"></use><g><use xlink:href="#a1iltKx5Yj" opacity="1" fill-opacity="0" stroke="#000000" stroke-width="1" stroke-opacity="0"></use></g></g><g><use xlink:href="#aGjutr4dP" opacity="1" fill="#48575c" fill-opacity="1"></use><g><use xlink:href="#aGjutr4dP" opacity="1" fill-opacity="0" stroke="#000000" stroke-width="1" stroke-opacity="0"></use></g></g><g><use xlink:href="#c1dlICqzc1" opacity="1" fill="#3f4c52" fill-opacity="1"></use><g><use xlink:href="#c1dlICqzc1" opacity="1" fill-opacity="0" stroke="#000000" stroke-width="1" stroke-opacity="0"></use></g></g><g><use xlink:href="#bkVC0Teww" opacity="1" fill="#7f9a9e" fill-opacity="1"></use><g><use xlink:href="#bkVC0Teww" opacity="1" fill-opacity="0" stroke="#000000" stroke-width="1" stroke-opacity="0"></use></g></g><g><use xlink:href="#f2HSdxo73" opacity="1" fill="#d4dadb" fill-opacity="1"></use><g><use xlink:href="#f2HSdxo73" opacity="1" fill-opacity="0" stroke="#000000" stroke-width="1" stroke-opacity="0"></use></g></g><g><use xlink:href="#bGVOc92GE" opacity="1" fill="#3f4c52" fill-opacity="1"></use><g><use xlink:href="#bGVOc92GE" opacity="1" fill-opacity="0" stroke="#000000" stroke-width="1" stroke-opacity="0"></use></g></g><g><use xlink:href="#b1Cqa5Ij59" opacity="1" fill="#3b393d" fill-opacity="1"></use><g><use xlink:href="#b1Cqa5Ij59" opacity="1" fill-opacity="0" stroke="#000000" stroke-width="1" stroke-opacity="0"></use></g></g><g><use xlink:href="#a3Oi04LmpT" opacity="1" fill="#505256" fill-opacity="1"></use><g><use xlink:href="#a3Oi04LmpT" opacity="1" fill-opacity="0" stroke="#000000" stroke-width="1" stroke-opacity="0"></use></g></g><g><use xlink:href="#b7L6GbeVp8" opacity="1" fill="#eb3140" fill-opacity="1"></use><g><use xlink:href="#b7L6GbeVp8" opacity="1" fill-opacity="0" stroke="#000000" stroke-width="1" stroke-opacity="0"></use></g></g><g><use xlink:href="#d1RDhLXXZ4" opacity="1" fill="#ffffff" fill-opacity="1"></use><g><use xlink:href="#d1RDhLXXZ4" opacity="1" fill-opacity="0" stroke="#000000" stroke-width="1" stroke-opacity="0"></use></g></g><g><use xlink:href="#b517ydPA5" opacity="1" fill="#eb3140" fill-opacity="1"></use><g><use xlink:href="#b517ydPA5" opacity="1" fill-opacity="0" stroke="#000000" stroke-width="1" stroke-opacity="0"></use></g></g><g><use xlink:href="#c6ntRaF18" opacity="1" fill="#ffffff" fill-opacity="1"></use><g><use xlink:href="#c6ntRaF18" opacity="1" fill-opacity="0" stroke="#000000" stroke-width="1" stroke-opacity="0"></use></g></g><g><use xlink:href="#ayHtBHSPr" opacity="1" fill="#ffffff" fill-opacity="1"></use><g><use xlink:href="#ayHtBHSPr" opacity="1" fill-opacity="0" stroke="#000000" stroke-width="1" stroke-opacity="0"></use></g></g><g><use xlink:href="#fsXQeSUQi" opacity="1" fill="#ffffff" fill-opacity="1"></use><g><use xlink:href="#fsXQeSUQi" opacity="1" fill-opacity="0" stroke="#000000" stroke-width="1" stroke-opacity="0"></use></g></g><g><use xlink:href="#a1keC9aZjD" opacity="1" fill="#ffffff" fill-opacity="1"></use><g><use xlink:href="#a1keC9aZjD" opacity="1" fill-opacity="0" stroke="#000000" stroke-width="1" stroke-opacity="0"></use></g></g><g><use xlink:href="#b3SCKj0RxD" opacity="1" fill="#f8c9aa" fill-opacity="1"></use><g><use xlink:href="#b3SCKj0RxD" opacity="1" fill-opacity="0" stroke="#000000" stroke-width="1" stroke-opacity="0"></use></g></g><g><use xlink:href="#a35aUwHrMf" opacity="1" fill="#373530" fill-opacity="1"></use><g><use xlink:href="#a35aUwHrMf" opacity="1" fill-opacity="0" stroke="#000000" stroke-width="1" stroke-opacity="0"></use></g></g><g><use xlink:href="#g4fBOGm6P" opacity="1" fill="#e9f7fd" fill-opacity="1"></use><g><use xlink:href="#g4fBOGm6P" opacity="1" fill-opacity="0" stroke="#000000" stroke-width="1" stroke-opacity="0"></use></g></g><g><use xlink:href="#b9bMeSHRS" opacity="1" fill="#3f4c52" fill-opacity="1"></use><g><use xlink:href="#b9bMeSHRS" opacity="1" fill-opacity="0" stroke="#000000" stroke-width="1" stroke-opacity="0"></use></g></g><g><use xlink:href="#a6WxO8c517" opacity="1" fill="#f8c9aa" fill-opacity="1"></use><g><use xlink:href="#a6WxO8c517" opacity="1" fill-opacity="0" stroke="#000000" stroke-width="1" stroke-opacity="0"></use></g></g><g><use xlink:href="#b1gb7hIAoC" opacity="1" fill="#52423b" fill-opacity="1"></use><g><use xlink:href="#b1gb7hIAoC" opacity="1" fill-opacity="0" stroke="#000000" stroke-width="1" stroke-opacity="0"></use></g></g><g><use xlink:href="#b1hyXZIVFu" opacity="1" fill="#e9f7fd" fill-opacity="1"></use><g><use xlink:href="#b1hyXZIVFu" opacity="1" fill-opacity="0" stroke="#000000" stroke-width="1" stroke-opacity="0"></use></g></g><g><use xlink:href="#aIQIbeyrB" opacity="1" fill="#3f4c52" fill-opacity="1"></use><g><use xlink:href="#aIQIbeyrB" opacity="1" fill-opacity="0" stroke="#000000" stroke-width="1" stroke-opacity="0"></use></g></g><g><use xlink:href="#aOX3pKNp" opacity="1" fill="#f8c9aa" fill-opacity="1"></use><g><use xlink:href="#aOX3pKNp" opacity="1" fill-opacity="0" stroke="#000000" stroke-width="1" stroke-opacity="0"></use></g></g><g><use xlink:href="#elkGryubl" opacity="1" fill="#5c3823" fill-opacity="1"></use><g><use xlink:href="#elkGryubl" opacity="1" fill-opacity="0" stroke="#000000" stroke-width="1" stroke-opacity="0"></use></g></g><g><use xlink:href="#d1Ru6w3m26" opacity="1" fill="#e9f7fd" fill-opacity="1"></use><g><use xlink:href="#d1Ru6w3m26" opacity="1" fill-opacity="0" stroke="#000000" stroke-width="1" stroke-opacity="0"></use></g></g><g><use xlink:href="#dkIXYL7JD" opacity="1" fill="#3a5272" fill-opacity="1"></use><g><use xlink:href="#dkIXYL7JD" opacity="1" fill-opacity="0" stroke="#000000" stroke-width="1" stroke-opacity="0"></use></g></g><g><use xlink:href="#c2eDKZfZSl" opacity="1" fill="#f8c9aa" fill-opacity="1"></use><g><use xlink:href="#c2eDKZfZSl" opacity="1" fill-opacity="0" stroke="#000000" stroke-width="1" stroke-opacity="0"></use></g></g><g><use xlink:href="#a13U3YX4YS" opacity="1" fill="#5c3823" fill-opacity="1"></use><g><use xlink:href="#a13U3YX4YS" opacity="1" fill-opacity="0" stroke="#000000" stroke-width="1" stroke-opacity="0"></use></g></g><g><use xlink:href="#afhlwEXVB" opacity="1" fill="#e9f7fd" fill-opacity="1"></use><g><use xlink:href="#afhlwEXVB" opacity="1" fill-opacity="0" stroke="#000000" stroke-width="1" stroke-opacity="0"></use></g></g><g><use xlink:href="#a1mRSQmZ9w" opacity="1" fill="#516670" fill-opacity="1"></use><g><use xlink:href="#a1mRSQmZ9w" opacity="1" fill-opacity="0" stroke="#000000" stroke-width="1" stroke-opacity="0"></use></g></g><g><use xlink:href="#d3dWaSXMC3" opacity="1" fill="#f8c9aa" fill-opacity="1"></use><g><use xlink:href="#d3dWaSXMC3" opacity="1" fill-opacity="0" stroke="#000000" stroke-width="1" stroke-opacity="0"></use></g></g><g><use xlink:href="#g17g848Pm" opacity="1" fill="#5c3823" fill-opacity="1"></use><g><use xlink:href="#g17g848Pm" opacity="1" fill-opacity="0" stroke="#000000" stroke-width="1" stroke-opacity="0"></use></g></g><g><use xlink:href="#b2EVzB3smO" opacity="1" fill="#e9f7fd" fill-opacity="1"></use><g><use xlink:href="#b2EVzB3smO" opacity="1" fill-opacity="0" stroke="#000000" stroke-width="1" stroke-opacity="0"></use></g></g><g><use xlink:href="#cmlnttQ4" opacity="1" fill="#3a5272" fill-opacity="1"></use><g><use xlink:href="#cmlnttQ4" opacity="1" fill-opacity="0" stroke="#000000" stroke-width="1" stroke-opacity="0"></use></g></g><g><use xlink:href="#kbXFkyQUs" opacity="1" fill="#f8c9aa" fill-opacity="1"></use><g><use xlink:href="#kbXFkyQUs" opacity="1" fill-opacity="0" stroke="#000000" stroke-width="1" stroke-opacity="0"></use></g></g><g><use xlink:href="#a210ezlUi" opacity="1" fill="#373530" fill-opacity="1"></use><g><use xlink:href="#a210ezlUi" opacity="1" fill-opacity="0" stroke="#000000" stroke-width="1" stroke-opacity="0"></use></g></g><g><use xlink:href="#hTYYBGy78" opacity="1" fill="#e9f7fd" fill-opacity="1"></use><g><use xlink:href="#hTYYBGy78" opacity="1" fill-opacity="0" stroke="#000000" stroke-width="1" stroke-opacity="0"></use></g></g><g><use xlink:href="#c3Sp7U2Eg" opacity="1" fill="#5c727e" fill-opacity="1"></use><g><use xlink:href="#c3Sp7U2Eg" opacity="1" fill-opacity="0" stroke="#000000" stroke-width="1" stroke-opacity="0"></use></g></g></g></g></svg>